{"title":"Northern.Lights.2009.DVDRiP.XviD.OPTIONAL-NORDIC_SUB-Zen_Bud","uid":5892001,"size":758934627,"categoryP":"video","categoryS":"movies","magnet":"?xt=urn:btih:b321a877be2fd53f4412bd44aa67fe5e480ae49f&amp;dn=Northern.Lights.2009.DVDRiP.XviD.OPTIONAL-NORDIC_SUB-Zen_Bud&amp;tr=udp%3A%2F%2Ftracker.openbittorrent.com%3A80&amp;tr=udp%3A%2F%2Fopen.demonii.com%3A1337&amp;tr=udp%3A%2F%2Ftracker.coppersurfer.tk%3A6969&amp;tr=udp%3A%2F%2Fexodus.desync.com%3A6969","seeders":1,"leechers":1,"uploader":"Zen_Bud","files":-1,"time":1287303172,"description":"\n**** Northern.Lights.2009.DVDRiP.XviD.OPTIONAL-NORDIC_SUB-Zen_Bud ****\n\nFormat                           : AVI\nFile size                        : 705 MiB\nDuration                         : 1h 27mn\nOverall bit rate                 : 1 126 Kbps\n\nVideo\n\nFormat                           : MPEG-4 Visual\nCodec ID/Hint                    : XviD\nDuration                         : 1h 27mn\nBit rate                         : 985 Kbps\nWidth                            : 720 pixels\nHeight                           : 572 pixels\nDisplay aspect ratio             : 16:9\nStream size                      : 617 MiB (87%)\nWriting library                  : XviD 1.1.2 (UTC 2006-11-01)\n\nAudio\n\nFormat                           : MPEG Audio\nCodec ID/Hint                    : MP3\nDuration                         : 1h 27mn\nBit rate                         : 128 Kbps\nChannel(s)                       : 2 channels\nSampling rate                    : 48.0 KHz\nStream size                      : 80.2 MiB (11%)\nWriting library                  : LAME3.98\nLanguage                         : English\n\nText #1\nLanguage                         : Swedish\n\nText #2\nLanguage                         : Danish\n\nText #3\nLanguage                         : Norwegian\n\nText #4\nLanguage                         : Finnish\n","torrent":{"xt":"urn:btih:b321a877be2fd53f4412bd44aa67fe5e480ae49f","amp;dn":"Northern.Lights.2009.DVDRiP.XviD.OPTIONAL-NORDIC_SUB-Zen_Bud","amp;tr":["udp%3A%2F%2Ftracker.openbittorrent.com%3A80","udp%3A%2F%2Fopen.demonii.com%3A1337","udp%3A%2F%2Ftracker.coppersurfer.tk%3A6969","udp%3A%2F%2Fexodus.desync.com%3A6969"],"infoHash":"b321a877be2fd53f4412bd44aa67fe5e480ae49f","infoHashBuffer":{"type":"Buffer","data":[179,33,168,119,190,47,213,63,68,18,189,68,170,103,254,94,72,10,228,159]},"announce":[],"urlList":[]}}